<mxfile host="app.diagrams.net" modified="2021-09-08T14:26:55.789Z" agent="5.0 (Windows NT 10.0; Win64; x64) AppleWebKit/537.36 (KHTML, like Gecko) Chrome/92.0.4515.131 Safari/537.36 OPR/78.0.4093.186" etag="XEJ0T-n1vwCv7m2nbUyM" version="15.1.2" type="github">
  <diagram id="w31SswMrqwb5rYLDAgo4" name="Page-1">
    <mxGraphModel dx="1038" dy="548" grid="1" gridSize="10" guides="1" tooltips="1" connect="1" arrows="1" fold="1" page="1" pageScale="1" pageWidth="850" pageHeight="1100" math="0" shadow="0">
      <root>
        <mxCell id="0" />
        <mxCell id="1" parent="0" />
        <mxCell id="WyAlHRN2Kqf-eRbSCBe1-1" value="Account" style="swimlane;fontStyle=1;align=center;verticalAlign=top;childLayout=stackLayout;horizontal=1;startSize=26;horizontalStack=0;resizeParent=1;resizeParentMax=0;resizeLast=0;collapsible=1;marginBottom=0;" parent="1" vertex="1">
          <mxGeometry x="350" y="80" width="160" height="160" as="geometry" />
        </mxCell>
        <mxCell id="WyAlHRN2Kqf-eRbSCBe1-2" value="+ username : String[]&#xa;+ password : String[]" style="text;strokeColor=none;fillColor=none;align=left;verticalAlign=top;spacingLeft=4;spacingRight=4;overflow=hidden;rotatable=0;points=[[0,0.5],[1,0.5]];portConstraint=eastwest;" parent="WyAlHRN2Kqf-eRbSCBe1-1" vertex="1">
          <mxGeometry y="26" width="160" height="44" as="geometry" />
        </mxCell>
        <mxCell id="WyAlHRN2Kqf-eRbSCBe1-3" value="" style="line;strokeWidth=1;fillColor=none;align=left;verticalAlign=middle;spacingTop=-1;spacingLeft=3;spacingRight=3;rotatable=0;labelPosition=right;points=[];portConstraint=eastwest;" parent="WyAlHRN2Kqf-eRbSCBe1-1" vertex="1">
          <mxGeometry y="70" width="160" height="8" as="geometry" />
        </mxCell>
        <mxCell id="WyAlHRN2Kqf-eRbSCBe1-4" value="+ registerAccount()&#xa;+ validateUsername()&#xa;+ validatePassword()&#xa;+ login()&#xa;+ logout()&#xa;&#xa;&#xa;" style="text;strokeColor=none;fillColor=none;align=left;verticalAlign=top;spacingLeft=4;spacingRight=4;overflow=hidden;rotatable=0;points=[[0,0.5],[1,0.5]];portConstraint=eastwest;" parent="WyAlHRN2Kqf-eRbSCBe1-1" vertex="1">
          <mxGeometry y="78" width="160" height="82" as="geometry" />
        </mxCell>
        <mxCell id="WyAlHRN2Kqf-eRbSCBe1-9" value="Timetable" style="swimlane;fontStyle=1;align=center;verticalAlign=top;childLayout=stackLayout;horizontal=1;startSize=26;horizontalStack=0;resizeParent=1;resizeParentMax=0;resizeLast=0;collapsible=1;marginBottom=0;" parent="1" vertex="1">
          <mxGeometry x="400" y="290" width="160" height="180" as="geometry" />
        </mxCell>
        <mxCell id="WyAlHRN2Kqf-eRbSCBe1-10" value="+ tasks: String[]&#xa;+ time: int&#xa;+ colour: String[]&#xa;+ day: String[]" style="text;strokeColor=none;fillColor=none;align=left;verticalAlign=top;spacingLeft=4;spacingRight=4;overflow=hidden;rotatable=0;points=[[0,0.5],[1,0.5]];portConstraint=eastwest;" parent="WyAlHRN2Kqf-eRbSCBe1-9" vertex="1">
          <mxGeometry y="26" width="160" height="64" as="geometry" />
        </mxCell>
        <mxCell id="WyAlHRN2Kqf-eRbSCBe1-11" value="" style="line;strokeWidth=1;fillColor=none;align=left;verticalAlign=middle;spacingTop=-1;spacingLeft=3;spacingRight=3;rotatable=0;labelPosition=right;points=[];portConstraint=eastwest;" parent="WyAlHRN2Kqf-eRbSCBe1-9" vertex="1">
          <mxGeometry y="90" width="160" height="20" as="geometry" />
        </mxCell>
        <mxCell id="WyAlHRN2Kqf-eRbSCBe1-12" value="+ display(task): void&#xa;+ CreateTimetable()&#xa;+ UpdateTimetable()&#xa;+ DeleteTimetable()&#xa;" style="text;strokeColor=none;fillColor=none;align=left;verticalAlign=top;spacingLeft=4;spacingRight=4;overflow=hidden;rotatable=0;points=[[0,0.5],[1,0.5]];portConstraint=eastwest;" parent="WyAlHRN2Kqf-eRbSCBe1-9" vertex="1">
          <mxGeometry y="110" width="160" height="70" as="geometry" />
        </mxCell>
        <mxCell id="WyAlHRN2Kqf-eRbSCBe1-25" value="NotesMaker" style="swimlane;fontStyle=1;align=center;verticalAlign=top;childLayout=stackLayout;horizontal=1;startSize=26;horizontalStack=0;resizeParent=1;resizeParentMax=0;resizeLast=0;collapsible=1;marginBottom=0;" parent="1" vertex="1">
          <mxGeometry x="560" y="80" width="160" height="150" as="geometry" />
        </mxCell>
        <mxCell id="WyAlHRN2Kqf-eRbSCBe1-26" value="+ subject: String[]&#xa;+ description : String[]" style="text;strokeColor=none;fillColor=none;align=left;verticalAlign=top;spacingLeft=4;spacingRight=4;overflow=hidden;rotatable=0;points=[[0,0.5],[1,0.5]];portConstraint=eastwest;" parent="WyAlHRN2Kqf-eRbSCBe1-25" vertex="1">
          <mxGeometry y="26" width="160" height="44" as="geometry" />
        </mxCell>
        <mxCell id="WyAlHRN2Kqf-eRbSCBe1-27" value="" style="line;strokeWidth=1;fillColor=none;align=left;verticalAlign=middle;spacingTop=-1;spacingLeft=3;spacingRight=3;rotatable=0;labelPosition=right;points=[];portConstraint=eastwest;" parent="WyAlHRN2Kqf-eRbSCBe1-25" vertex="1">
          <mxGeometry y="70" width="160" height="8" as="geometry" />
        </mxCell>
        <mxCell id="WyAlHRN2Kqf-eRbSCBe1-28" value="+ display(note): void&#xa;+ CreateNote()&#xa;+ UpdateNote()&#xa;+ DeleteNote()" style="text;strokeColor=none;fillColor=none;align=left;verticalAlign=top;spacingLeft=4;spacingRight=4;overflow=hidden;rotatable=0;points=[[0,0.5],[1,0.5]];portConstraint=eastwest;" parent="WyAlHRN2Kqf-eRbSCBe1-25" vertex="1">
          <mxGeometry y="78" width="160" height="72" as="geometry" />
        </mxCell>
        <mxCell id="WyAlHRN2Kqf-eRbSCBe1-29" value="CalendarReminder" style="swimlane;fontStyle=1;align=center;verticalAlign=top;childLayout=stackLayout;horizontal=1;startSize=26;horizontalStack=0;resizeParent=1;resizeParentMax=0;resizeLast=0;collapsible=1;marginBottom=0;" parent="1" vertex="1">
          <mxGeometry x="140" y="80" width="160" height="170" as="geometry" />
        </mxCell>
        <mxCell id="WyAlHRN2Kqf-eRbSCBe1-30" value="+ tasks: String[]&#xa;+ time: int&#xa;" style="text;strokeColor=none;fillColor=none;align=left;verticalAlign=top;spacingLeft=4;spacingRight=4;overflow=hidden;rotatable=0;points=[[0,0.5],[1,0.5]];portConstraint=eastwest;" parent="WyAlHRN2Kqf-eRbSCBe1-29" vertex="1">
          <mxGeometry y="26" width="160" height="44" as="geometry" />
        </mxCell>
        <mxCell id="WyAlHRN2Kqf-eRbSCBe1-31" value="" style="line;strokeWidth=1;fillColor=none;align=left;verticalAlign=middle;spacingTop=-1;spacingLeft=3;spacingRight=3;rotatable=0;labelPosition=right;points=[];portConstraint=eastwest;" parent="WyAlHRN2Kqf-eRbSCBe1-29" vertex="1">
          <mxGeometry y="70" width="160" height="8" as="geometry" />
        </mxCell>
        <mxCell id="WyAlHRN2Kqf-eRbSCBe1-32" value="+ display(reminder): void&#xa;+ CreateReminder()&#xa;+ UpdateReminder()&#xa;+ DeleteReminder()&#xa;+ Notify()&#xa;" style="text;strokeColor=none;fillColor=none;align=left;verticalAlign=top;spacingLeft=4;spacingRight=4;overflow=hidden;rotatable=0;points=[[0,0.5],[1,0.5]];portConstraint=eastwest;" parent="WyAlHRN2Kqf-eRbSCBe1-29" vertex="1">
          <mxGeometry y="78" width="160" height="92" as="geometry" />
        </mxCell>
        <mxCell id="6HOxyXJka_xtDrWbhyL2-1" value="Activities" style="swimlane;fontStyle=1;align=center;verticalAlign=top;childLayout=stackLayout;horizontal=1;startSize=26;horizontalStack=0;resizeParent=1;resizeParentMax=0;resizeLast=0;collapsible=1;marginBottom=0;" vertex="1" parent="1">
          <mxGeometry x="160" y="320" width="140" height="90" as="geometry" />
        </mxCell>
        <mxCell id="6HOxyXJka_xtDrWbhyL2-3" value="" style="line;strokeWidth=1;fillColor=none;align=left;verticalAlign=middle;spacingTop=-1;spacingLeft=3;spacingRight=3;rotatable=0;labelPosition=right;points=[];portConstraint=eastwest;" vertex="1" parent="6HOxyXJka_xtDrWbhyL2-1">
          <mxGeometry y="26" width="140" height="8" as="geometry" />
        </mxCell>
        <mxCell id="6HOxyXJka_xtDrWbhyL2-4" value="+ calcCal(kcal)&#xa;+ displayCal(): void&#xa;" style="text;strokeColor=none;fillColor=none;align=left;verticalAlign=top;spacingLeft=4;spacingRight=4;overflow=hidden;rotatable=0;points=[[0,0.5],[1,0.5]];portConstraint=eastwest;" vertex="1" parent="6HOxyXJka_xtDrWbhyL2-1">
          <mxGeometry y="34" width="140" height="56" as="geometry" />
        </mxCell>
        <mxCell id="6HOxyXJka_xtDrWbhyL2-21" style="edgeStyle=orthogonalEdgeStyle;rounded=0;orthogonalLoop=1;jettySize=auto;html=1;entryX=0.555;entryY=1;entryDx=0;entryDy=0;entryPerimeter=0;" edge="1" parent="1" source="6HOxyXJka_xtDrWbhyL2-9" target="6HOxyXJka_xtDrWbhyL2-4">
          <mxGeometry relative="1" as="geometry">
            <Array as="points">
              <mxPoint x="380" y="480" />
              <mxPoint x="238" y="480" />
            </Array>
          </mxGeometry>
        </mxCell>
        <mxCell id="6HOxyXJka_xtDrWbhyL2-9" value="Walking" style="swimlane;fontStyle=1;align=center;verticalAlign=top;childLayout=stackLayout;horizontal=1;startSize=26;horizontalStack=0;resizeParent=1;resizeParentMax=0;resizeLast=0;collapsible=1;marginBottom=0;" vertex="1" parent="1">
          <mxGeometry x="300" y="510" width="160" height="120" as="geometry" />
        </mxCell>
        <mxCell id="6HOxyXJka_xtDrWbhyL2-10" value="+ steps: int&#xa;+ calories: double" style="text;strokeColor=none;fillColor=none;align=left;verticalAlign=top;spacingLeft=4;spacingRight=4;overflow=hidden;rotatable=0;points=[[0,0.5],[1,0.5]];portConstraint=eastwest;" vertex="1" parent="6HOxyXJka_xtDrWbhyL2-9">
          <mxGeometry y="26" width="160" height="44" as="geometry" />
        </mxCell>
        <mxCell id="6HOxyXJka_xtDrWbhyL2-11" value="" style="line;strokeWidth=1;fillColor=none;align=left;verticalAlign=middle;spacingTop=-1;spacingLeft=3;spacingRight=3;rotatable=0;labelPosition=right;points=[];portConstraint=eastwest;" vertex="1" parent="6HOxyXJka_xtDrWbhyL2-9">
          <mxGeometry y="70" width="160" height="20" as="geometry" />
        </mxCell>
        <mxCell id="6HOxyXJka_xtDrWbhyL2-12" value="+ displaySteps()&#xa;&#xa;" style="text;strokeColor=none;fillColor=none;align=left;verticalAlign=top;spacingLeft=4;spacingRight=4;overflow=hidden;rotatable=0;points=[[0,0.5],[1,0.5]];portConstraint=eastwest;" vertex="1" parent="6HOxyXJka_xtDrWbhyL2-9">
          <mxGeometry y="90" width="160" height="30" as="geometry" />
        </mxCell>
        <mxCell id="6HOxyXJka_xtDrWbhyL2-20" style="edgeStyle=orthogonalEdgeStyle;rounded=0;orthogonalLoop=1;jettySize=auto;html=1;entryX=0.46;entryY=0.989;entryDx=0;entryDy=0;entryPerimeter=0;" edge="1" parent="1" source="6HOxyXJka_xtDrWbhyL2-16" target="6HOxyXJka_xtDrWbhyL2-4">
          <mxGeometry relative="1" as="geometry" />
        </mxCell>
        <mxCell id="6HOxyXJka_xtDrWbhyL2-16" value="Running" style="swimlane;fontStyle=1;align=center;verticalAlign=top;childLayout=stackLayout;horizontal=1;startSize=26;horizontalStack=0;resizeParent=1;resizeParentMax=0;resizeLast=0;collapsible=1;marginBottom=0;" vertex="1" parent="1">
          <mxGeometry x="110" y="510" width="160" height="140" as="geometry" />
        </mxCell>
        <mxCell id="6HOxyXJka_xtDrWbhyL2-17" value="+ distance: double&#xa;+ time: int&#xa;+ calories: double&#xa;+ pace: double" style="text;strokeColor=none;fillColor=none;align=left;verticalAlign=top;spacingLeft=4;spacingRight=4;overflow=hidden;rotatable=0;points=[[0,0.5],[1,0.5]];portConstraint=eastwest;" vertex="1" parent="6HOxyXJka_xtDrWbhyL2-16">
          <mxGeometry y="26" width="160" height="44" as="geometry" />
        </mxCell>
        <mxCell id="6HOxyXJka_xtDrWbhyL2-18" value="" style="line;strokeWidth=1;fillColor=none;align=left;verticalAlign=middle;spacingTop=-1;spacingLeft=3;spacingRight=3;rotatable=0;labelPosition=right;points=[];portConstraint=eastwest;" vertex="1" parent="6HOxyXJka_xtDrWbhyL2-16">
          <mxGeometry y="70" width="160" height="8" as="geometry" />
        </mxCell>
        <mxCell id="6HOxyXJka_xtDrWbhyL2-19" value="+ displayDistance()&#xa;+ displayTime()&#xa;+ calPace()&#xa;&#xa;&#xa;&#xa;&#xa;&#xa;" style="text;strokeColor=none;fillColor=none;align=left;verticalAlign=top;spacingLeft=4;spacingRight=4;overflow=hidden;rotatable=0;points=[[0,0.5],[1,0.5]];portConstraint=eastwest;" vertex="1" parent="6HOxyXJka_xtDrWbhyL2-16">
          <mxGeometry y="78" width="160" height="62" as="geometry" />
        </mxCell>
      </root>
    </mxGraphModel>
  </diagram>
</mxfile>
